            <svg version="1.1" xmlns="http://www.w3.org/2000/svg" xmlns:xlink="http://www.w3.org/1999/xlink" x="0px" y="0px" width="240px" height="40px" viewBox="0 0 240 40" style="enable-background:new 0 0 240 40;" xml:space="preserve">
                <g>
                    <path style="fill:#FFFFFF;" d="M63.2,4.8c-2.2-2.3-5.5-3.4-9.9-3.4H39.9v38h6V25.2h6.7c4.4,0,7.8-1.1,10.3-3.4
            c2.5-2.3,3.7-5.2,3.7-8.7C66.5,9.9,65.4,7.1,63.2,4.8z M52.7,19.7h-6.9V6.9h6.9c2.8,0,4.8,0.6,6,1.9c1.2,1.2,1.8,2.7,1.8,4.5
            C60.5,16.7,58,19.7,52.7,19.7z M140.4,1.3h-7L128.8,9h5L140.4,1.3z M99.8,17.5v-4.1h-5.6v25.9h5.8V26.2c0-4.5,2.3-7.1,6.7-7.1
            c0.6,0,1.1,0,1.6,0.1v-5.9c-0.3-0.1-0.8-0.1-1.4-0.1C103.8,13.2,101.4,14.6,99.8,17.5z M29.3,39.3h5.8v-38h-5.8V39.3z M13.9,12.9
            c-3.7,0-6.8,1.3-9.3,3.9c-2.5,2.6-3.7,5.8-3.7,9.5c0,3.8,1.3,7.1,3.9,9.6c2.6,2.6,5.9,3.8,9.7,3.8c4.6,0,8.9-2.2,11.1-6.2l-4.2-2.7
            c-1.4,2.6-3.7,4-7,4c-2,0-3.7-0.6-5.2-1.9c-1.5-1.3-2.3-2.9-2.3-4.8h19.7c0-0.4,0.1-1,0.1-1.8c0-4-1.1-7.2-3.3-9.7
            C20.9,14.1,17.8,12.9,13.9,12.9z M7,23.7c0.5-3.5,3.3-5.9,6.8-5.9c3.7,0,6.5,2.2,6.7,5.9H7z M78.8,12.9c-3.7,0-6.8,1.3-9.3,3.9
            c-2.5,2.6-3.7,5.8-3.7,9.5c0,3.8,1.3,7.1,3.9,9.6c2.6,2.6,5.9,3.8,9.7,3.8c4.6,0,8.9-2.2,11.1-6.2l-4.2-2.7c-1.4,2.6-3.7,4-7,4
            c-2,0-3.7-0.6-5.2-1.9c-1.5-1.3-2.3-2.9-2.3-4.8h19.7c0-0.4,0.1-1,0.1-1.8c0-4-1.1-7.2-3.3-9.7C85.8,14.1,82.7,12.9,78.8,12.9z
             M71.9,23.7c0.5-3.5,3.3-5.9,6.8-5.9c3.7,0,6.5,2.2,6.7,5.9H71.9z M178.3,2.3c-1.5,1.5-1.5,3.8,0,5.3s3.8,1.5,5.3,0s1.5-3.8,0-5.3
            C182.1,0.8,179.8,0.8,178.3,2.3z M178.1,39.3h5.8V13.4h-5.8V39.3z M109.6,39.3h5.8V13.4h-5.8V39.3z M200,34.5c-2.2,0-4-0.8-5.5-2.3
            c-1.4-1.5-2.2-3.5-2.2-6c0-2.4,0.7-4.3,2.2-5.8c1.5-1.5,3.3-2.3,5.4-2.3c3.3,0,5.5,1.6,6.6,4.7l4.9-2.2c-1.5-4.6-5.8-7.8-11.6-7.8
            c-3.8,0-7,1.3-9.6,4c-2.6,2.6-3.9,5.8-3.9,9.5c0,3.8,1.3,7,3.9,9.6c2.6,2.6,5.8,3.8,9.6,3.8c3.1,0,5.7-0.8,7.7-2.3
            c2-1.5,3.4-3.4,4.1-5.5l-5-2.1C205.5,32.9,203.3,34.5,200,34.5z M109.8,2.3c-1.5,1.5-1.5,3.8,0,5.3s3.8,1.5,5.3,0s1.5-3.8,0-5.3
            C113.6,0.8,111.3,0.8,109.8,2.3z M167.7,17.1c-0.8-1.4-2.1-2.4-3.8-3.1c-1.6-0.7-3.1-1-4.5-1c-3.8,0-7,1.3-9.4,4.1
            c-2.4,2.7-3.5,5.8-3.5,9.3c0,3.6,1.2,6.7,3.6,9.4c2.4,2.6,5.5,4,9.1,4c1.3,0,2.9-0.3,4.6-1c1.8-0.7,3.1-1.8,4-3.3v4h5.6V1.3h-5.8
            L167.7,17.1L167.7,17.1z M165.7,32.1c-1.4,1.5-3.3,2.3-5.6,2.3c-2.3,0-4.2-0.8-5.6-2.3c-1.4-1.6-2.1-3.5-2.1-5.8s0.7-4.2,2.1-5.8
            c1.4-1.6,3.3-2.4,5.6-2.4c2.3,0,4.1,0.8,5.6,2.4c1.4,1.6,2.2,3.5,2.2,5.8C167.8,28.6,167.1,30.5,165.7,32.1z M131.8,12.9
            c-3.8,0-7.1,1.3-9.7,3.9c-2.6,2.6-4,5.8-4,9.5c0,3.8,1.3,7,4,9.5c2.6,2.6,5.9,3.9,9.7,3.9c3.8,0,7-1.3,9.6-3.9c2.6-2.6,4-5.8,4-9.6
            s-1.3-6.9-4-9.5C138.7,14.1,135.5,12.9,131.8,12.9z M137.3,32.1c-1.4,1.6-3.2,2.4-5.5,2.4c-2.3,0-4.2-0.8-5.6-2.4
            c-1.4-1.6-2.2-3.6-2.2-5.9s0.7-4.2,2.1-5.8c1.4-1.5,3.3-2.3,5.6-2.3s4.1,0.8,5.5,2.4c1.4,1.6,2.2,3.5,2.2,5.8
            C139.5,28.6,138.7,30.5,137.3,32.1z M235.6,16.7c-2.6-2.6-5.9-3.8-9.6-3.8c-3.8,0-7,1.3-9.7,3.9s-4,5.8-4,9.5c0,3.8,1.3,7,4,9.5
            c2.7,2.5,5.9,3.9,9.7,3.9c3.8,0,7-1.3,9.6-3.9c2.6-2.6,4-5.8,4-9.6C239.6,22.4,238.3,19.3,235.6,16.7z M231.6,32.1
            c-1.4,1.6-3.3,2.4-5.6,2.4s-4.2-0.8-5.6-2.4c-1.4-1.6-2.2-3.6-2.2-5.9s0.7-4.2,2.1-5.7c1.4-1.6,3.3-2.4,5.6-2.4
            c2.3,0,4.2,0.8,5.6,2.4c1.4,1.6,2.2,3.5,2.2,5.8C233.7,28.6,233,30.5,231.6,32.1z"></path>
                </g>
            </svg>
