<svg version="1.1" id="Capa_1" xmlns="http://www.w3.org/2000/svg" xmlns:xlink="http://www.w3.org/1999/xlink" x="0px" y="0px" viewBox="0 0 600 300" style="enable-background:new 0 0 600 300;" xml:space="preserve" width="100%" height="100%" preserveAspectRatio="none"><style type="text/css"> .st0{fill:none;} .st1{enable-background:new ;} .st2{fill:#4D4D4D;} .st3{fill:#FFFFFF;} .st4{fill:#E2312A;} .st5{fill:#043878;} .st6{fill:#E20613;} </style><rect x="139.5" y="110.9" class="st0" width="337.9" height="53.2"/><g class="st1"><path class="st2" d="M154.1,148.9l0.7,4.4c-1.4,0.3-2.6,0.4-3.7,0.4c-1.8,0-3.2-0.3-4.1-0.8c-1-0.6-1.7-1.4-2.1-2.2 c-0.4-0.8-0.6-2.9-0.6-5.9v-16.9h-3.6V124h3.6v-7.3l5-3v10.2h5v3.9h-5v17.1c0,1.4,0.1,2.3,0.3,2.8c0.1,0.4,0.4,0.7,0.8,1 s1,0.4,1.7,0.4C152.4,149,153.1,149,154.1,148.9z"/><path class="st2" d="M158.9,118.6V113h5v5.6H158.9z M158.9,153.3V124h5v29.3L158.9,153.3z"/><path class="st2" d="M191.5,143.8l5.1,0.7c-0.8,3-2.3,5.4-4.5,7s-5,2.5-8.4,2.5c-4.3,0-7.7-1.4-10.2-4c-2.5-2.6-3.7-6.3-3.7-11.1 c0-5,1.2-8.8,3.9-11.4c2.6-2.6,5.8-4.1,9.9-4.1c3.9,0,7.2,1.4,9.6,4c2.5,2.6,3.7,6.5,3.7,11.3c0,0.3,0,0.7,0,1.4H175 c0.1,3.2,1.1,5.6,2.8,7.4c1.7,1.7,3.7,2.6,6.1,2.6c1.8,0,3.3-0.4,4.7-1.4C189.7,147.5,190.7,146,191.5,143.8z M175.1,135.8h16.4 c-0.3-2.5-0.8-4.3-1.9-5.5c-1.5-1.9-3.6-2.9-6.2-2.9c-2.3,0-4.1,0.8-5.8,2.3C176.2,131.3,175.4,133.3,175.1,135.8z"/><path class="st2" d="M202.8,153.3V124h4.4v4.1c2.2-3.2,5.2-4.8,9.4-4.8c1.8,0,3.4,0.3,4.8,1c1.5,0.7,2.6,1.5,3.3,2.5 c0.7,1,1.2,2.2,1.5,3.7c0.1,1,0.3,2.5,0.3,4.8v18h-5v-17.7c0-2.1-0.1-3.6-0.6-4.5s-1.1-1.8-2.1-2.3c-1-0.6-2.2-1-3.4-1 c-2.1,0-4,0.7-5.5,2.1s-2.3,3.9-2.3,7.6v16H202.8z"/><path class="st2" d="M253.1,153.3v-3.7c-1.8,2.9-4.5,4.4-8.1,4.4c-2.3,0-4.5-0.7-6.5-1.9c-1.9-1.2-3.4-3-4.5-5.4 c-1.1-2.3-1.7-5-1.7-8c0-2.9,0.6-5.5,1.5-8c1-2.3,2.5-4.3,4.4-5.5s4.1-1.9,6.5-1.9c1.8,0,3.3,0.4,4.7,1.1s2.5,1.7,3.3,2.9v-14.4h5 v40.3h-4.5V153.3z M237.4,138.7c0,3.7,0.8,6.6,2.3,8.4c1.5,1.8,3.4,2.8,5.6,2.8c2.2,0,4-0.8,5.5-2.6c1.5-1.8,2.3-4.5,2.3-8.1 c0-4-0.8-6.9-2.3-8.8c-1.5-1.9-3.4-2.8-5.6-2.8c-2.2,0-4,1-5.5,2.8C238.3,132.1,237.4,134.8,237.4,138.7z"/><path class="st2" d="M284.6,149.7c-1.8,1.5-3.6,2.6-5.4,3.3c-1.7,0.7-3.6,1-5.5,1c-3.2,0-5.6-0.8-7.4-2.3c-1.8-1.5-2.6-3.6-2.6-6.1 c0-1.4,0.3-2.8,1-4c0.7-1.2,1.5-2.2,2.6-2.9s2.2-1.2,3.6-1.7c1-0.3,2.5-0.6,4.4-0.7c4-0.4,7-1.1,8.8-1.7c0-0.7,0-1.1,0-1.2 c0-2.1-0.4-3.4-1.4-4.3c-1.2-1.1-3.2-1.7-5.6-1.7c-2.3,0-4,0.4-5.2,1.2c-1.1,0.8-1.9,2.2-2.5,4.4l-4.8-0.7c0.4-2.1,1.1-3.7,2.2-5.1 c1.1-1.4,2.5-2.2,4.4-2.9s4.1-1.1,6.6-1.1s4.5,0.3,6.1,0.8c1.5,0.6,2.8,1.4,3.4,2.2c0.7,0.8,1.2,2.1,1.5,3.4 c0.1,0.8,0.3,2.3,0.3,4.5v6.6c0,4.5,0.1,7.6,0.3,8.8c0.3,1.2,0.7,2.3,1.2,3.6h-5.2C285,152.2,284.7,151.1,284.6,149.7z M284.2,138.6c-1.8,0.7-4.5,1.4-8.1,1.9c-2.1,0.3-3.4,0.7-4.3,1c-0.8,0.4-1.5,1-1.9,1.7s-0.7,1.5-0.7,2.3c0,1.4,0.6,2.5,1.5,3.3 s2.5,1.4,4.4,1.4c1.9,0,3.6-0.4,5.1-1.2s2.6-1.9,3.3-3.4c0.6-1.1,0.8-2.8,0.8-5v-1.9H284.2z"/><path class="st2" d="M310.6,138.7c0-5.4,1.5-9.5,4.5-12c2.5-2.2,5.6-3.3,9.2-3.3c4,0,7.3,1.4,9.9,4c2.6,2.6,3.9,6.3,3.9,10.9 c0,3.7-0.6,6.7-1.7,8.9c-1.1,2.2-2.8,3.9-5,5.1c-2.2,1.2-4.5,1.8-7,1.8c-4.1,0-7.4-1.4-9.9-4C312,147.4,310.6,143.5,310.6,138.7z M315.7,138.7c0,3.7,0.8,6.6,2.5,8.4c1.7,1.9,3.7,2.8,6.2,2.8c2.5,0,4.5-1,6.2-2.8c1.7-1.8,2.5-4.7,2.5-8.5c0-3.6-0.8-6.3-2.5-8.3 c-1.7-1.9-3.7-2.8-6.2-2.8c-2.5,0-4.5,1-6.2,2.8C316.5,132.1,315.7,134.8,315.7,138.7z"/><path class="st2" d="M343.9,153.3V124h4.4v4.1c2.2-3.2,5.2-4.8,9.4-4.8c1.8,0,3.4,0.3,4.8,1c1.5,0.7,2.6,1.5,3.3,2.5 c0.7,1,1.2,2.2,1.5,3.7c0.1,1,0.3,2.5,0.3,4.8v18h-5v-17.7c0-2.1-0.1-3.6-0.6-4.5c-0.4-1-1.1-1.8-2.1-2.3c-1-0.6-2.2-1-3.4-1 c-2.1,0-4,0.7-5.5,2.1c-1.5,1.4-2.3,3.9-2.3,7.6v16H343.9z"/><path class="st2" d="M375.1,153.3v-40.4h5v40.3h-5V153.3z"/><path class="st2" d="M387.7,118.6V113h5v5.6H387.7z M387.7,153.3V124h5v29.3L387.7,153.3z"/><path class="st2" d="M400.3,153.3V124h4.4v4.1c2.2-3.2,5.2-4.8,9.4-4.8c1.8,0,3.4,0.3,4.8,1c1.5,0.7,2.6,1.5,3.3,2.5 c0.7,1,1.2,2.2,1.5,3.7c0.1,1,0.3,2.5,0.3,4.8v18h-5v-17.7c0-2.1-0.1-3.6-0.6-4.5s-1.1-1.8-2.1-2.3c-1-0.6-2.2-1-3.4-1 c-2.1,0-4,0.7-5.5,2.1c-1.5,1.4-2.3,3.9-2.3,7.6v16H400.3z"/><path class="st2" d="M451.6,143.8l5.1,0.7c-0.8,3-2.3,5.4-4.5,7c-2.2,1.7-5,2.5-8.4,2.5c-4.3,0-7.7-1.4-10.2-4 c-2.5-2.6-3.7-6.3-3.7-11.1c0-5,1.2-8.8,3.9-11.4c2.5-2.8,5.8-4.1,9.9-4.1c3.9,0,7.2,1.4,9.6,4c2.5,2.6,3.7,6.5,3.7,11.3 c0,0.3,0,0.7,0,1.4H435c0.1,3.2,1.1,5.6,2.8,7.4c1.7,1.7,3.7,2.6,6.1,2.6c1.8,0,3.3-0.4,4.7-1.4C449.9,147.5,450.9,146,451.6,143.8 z M435.3,135.8h16.4c-0.3-2.5-0.8-4.3-1.9-5.5c-1.5-1.9-3.6-2.9-6.2-2.9c-2.3,0-4.1,0.8-5.8,2.3S435.5,133.3,435.3,135.8z"/></g><g><rect x="44.9" y="150.4" class="st3" width="79.8" height="81.1"/><path class="st4" d="M58.8,225.2c-4.7-1.9-6.9-7.3-5-11.8c1.9-4.7,7.3-6.9,11.8-5l10.6,4.4l-19.5-47.7c-1.7-4.1,0.3-8.8,4.4-10.6 c4.1-1.7,8.8,0.3,10.6,4.4l7.3,17.6c0.8-1.9,2.3-3.4,4.4-4.3c3.6-1.5,7.7-0.1,9.8,3c0.8-1.9,2.3-3.6,4.4-4.5 c4.1-1.7,8.8,0.3,10.6,4.4l1.7,4.1c0.7-1.5,2.1-2.9,3.7-3.6c3.7-1.5,8,0.3,9.5,4l1.7,4v-71.5h-22.1V96.9 c0-16.4-13.3-29.8-29.8-29.8S42.8,80.4,42.8,96.9v15.3H18.8v119.4h55.3L58.8,225.2z M53.6,96.9c0-10.6,8.7-19.3,19.3-19.3 s19.3,8.7,19.3,19.3v15.3H53.6V96.9z"/></g><g><path class="st5" d="M396.6,229c-2.5-0.2-3.9-1.7-5.5-6l-22.7-58.6h-9.9l-22,56.6c-1.8,4.6-2.9,6.1-4.7,6.1c-2.6,0-3.5-2.3-4.2-6.1 l-2-9.8c-1.7-8.8-9.9-11.6-20.5-12.2c13.2-1.3,22.9-6.4,22.9-18.2c0-12.6-12.4-16.3-28.2-16.3h-31.3v1.7c5.8,0.5,6.7,1.4,6.7,8.1 V221c0,6.2-0.7,7.8-6.7,8v1.9H301V229c-5.8-0.3-6.7-1.5-6.7-8v-20.3h4.3c4.4,0,6.4,5.1,7.5,12l1.4,9.4c1.2,7.5,5.8,10.2,14.5,10.2 c3,0,5.9-0.3,8.7-1.3h18V229c-4.9-0.2-7.6-2.2-7.6-5.8c0-1.5,0.6-4.1,1.6-7.1l3.3-9.1h18.5l4.8,14.1c0.7,2.1,1.1,3.5,1.1,4.8 c0,2.3-2.2,2.9-6.5,3v1.9h32.8V229z M347.1,203.9l8.6-23.5l7.6,23.5H347.1z M563.8,164.5v1.8c7.1,1.7,7.4,5.5,7.4,14v24.8 l-36.3-40.6h-16.5v1.8c5.9,0.5,6.7,1.3,6.7,8.1v40.8c0,8.4-0.1,12.2-6.7,13.9v1.8h18.3v-1.8c-7.1-1.7-7.4-5.5-7.4-14v-29.6 l39.4,45.4c1.3-0.1,5.7-0.1,6.7,0v-50.8c0-8.4,0.1-12.2,6.7-13.9v-1.8H563.8z M483.7,165.2c-10.8,0-15.3,15.8-15.3,32.8 c0,14.8,4.6,32.4,15.9,32.4c11.2,0,15.3-17.4,15.3-32.8C499.6,181.3,494.5,165.2,483.7,165.2 M484,163.5 c21.4,0,35.1,12.6,35.1,33.8c0,20.4-14.2,34.8-35.2,34.8c-21.1,0-35.1-12.3-35.1-33.8C448.9,177.5,463.4,163.5,484,163.5 M447,166.3v-1.7h-48.6v22.7h2.1c2.6-13.9,9.9-19.4,20.9-19.4h4.8L397.8,229v1.9h48.9v-25.2h-2.1c-2.7,14.5-11.2,21.8-22.3,21.8 h-3.8L447,166.3z M172.2,166.3v-1.8h-33.3v1.8c5.9,0.5,6.7,1.3,6.7,8.1V221c0,6.4-0.7,7.8-6.7,8v1.9h54v-27.8h-2.1 c-3,15.3-9.9,24.4-17.2,24.4h-4.1c-4,0-4.8-0.9-4.8-5.9v-47.1C164.6,167.5,165.6,166.8,172.2,166.3 M209.3,203.9l8.6-23.5l7.6,23.5 H209.3z M258.8,229c-2.3-0.2-3.9-1.7-5.5-6l-22.7-58.6h-9.9l-21.4,55.1c-2.3,5.8-4,8.5-6.4,9.4v1.9h17.9V229 c-4.9-0.2-7.6-2.2-7.6-5.8c0-1.5,0.6-4.1,1.6-7.1l3.3-9.1h18.5l4.8,14.1c0.7,2.1,1.1,3.5,1.1,4.8c0,2.3-2.2,2.9-6.5,3v1.9h32.8V229 z M296.9,197.5h-2.6v-23.1c0-5.6,0.5-8.1,5.1-8.1c7,0,9,6.6,9,15.6C308.4,191.5,305.9,197.5,296.9,197.5"/><polygon class="st6" points="498.5,172.9 479.2,172.5 489.7,149.4 513.2,149.4 "/></g></svg>