<svg xmlns="http://www.w3.org/2000/svg" width="100%" height="100%" viewBox="0 0 41.2 41.7" preserveAspectRatio="none"><defs><style> .cls-1 { fill: none; stroke: #063978; stroke-linecap: round; stroke-linejoin: round; stroke-width: 2px; } </style></defs><g id="Capa_2"><g id="Capa_1-2"><g><rect class="cls-1" x="7.5" y="20.8" width="3.6" height="7.47" transform="translate(-1.8 0.8) rotate(-4.2)"/><path class="cls-1" d="M11.4,21.4s5.6-1.1,7.3,1.3c0,0,6.5-.1,7.2,2.3a2.2,2.2,0,0,1-2.3,2.6H19.4"/><path class="cls-1" d="M25.9,25s6.1-.8,6.9-.6,1.8.8,1.8,1.9a1.7,1.7,0,0,1-1.2,1.6l-5.8,1.5a8,8,0,0,1-5.2,2.1,7.3,7.3,0,0,1-2.9-.4l-8.1-3"/><polyline class="cls-1" points="14.9 21.2 14.9 9.6 32.7 9.6 32.7 24.4"/><polyline class="cls-1" points="21.6 9.6 21.6 16.3 23.7 13.8 25.9 16.3 25.9 9.6"/><line class="cls-1" x1="21.6" y1="1" x2="21.6" y2="2.8"/><line class="cls-1" x1="31.3" y1="3.6" x2="30.4" y2="5.1"/><line class="cls-1" x1="38.4" y1="11.3" x2="36.9" y2="12.3"/><line class="cls-1" x1="40.2" y1="21.2" x2="38.4" y2="21.2"/><line class="cls-1" x1="37.7" y1="31.1" x2="35.9" y2="29.9"/><line class="cls-1" x1="30.8" y1="38.1" x2="29.7" y2="36.1"/><line class="cls-1" x1="20.3" y1="40.7" x2="20.3" y2="38.9"/><line class="cls-1" x1="10.4" y1="37.5" x2="11.9" y2="36"/><line class="cls-1" x1="3.3" y1="30.5" x2="5.1" y2="29.4"/><line class="cls-1" x1="1" y1="19.6" x2="3" y2="19.6"/><line class="cls-1" x1="4" y1="9.6" x2="5.5" y2="10.8"/><line class="cls-1" x1="11.9" y1="3.1" x2="12.9" y2="4.8"/></g></g></g></svg>