<svg version="1.1" id="Capa_1" xmlns="http://www.w3.org/2000/svg" xmlns:xlink="http://www.w3.org/1999/xlink" x="0px" y="0px" viewBox="0 0 500 500" style="enable-background:new 0 0 500 500;" xml:space="preserve" width="100%" height="100%" preserveAspectRatio="none"><style type="text/css"> .st0{fill:#063978;} </style><g><g><g><path class="st0" d="M404.2,71.1c-45.5-8.1-87.3-33-108.3-47.1C282.3,14.9,266.4,10,250,10s-32.3,4.9-46,14.1 C183.1,38.1,141.3,63,95.8,71.1c-26.9,4.8-46.5,28.1-46.5,55.4v113.2c0,37.4,10.5,73.8,31.1,108.3c16.1,27,38.5,52.8,66.5,76.6 c47,40.1,93.6,61.1,95.5,62l7.6,3.4l7.6-3.4c2-0.9,48.5-21.8,95.5-62c28-23.9,50.3-49.7,66.5-76.6 c20.6-34.5,31.1-70.9,31.1-108.3V126.5C450.7,99.2,431.1,75.9,404.2,71.1z M413.2,239.7c0,55.7-28.2,108.2-83.7,155.8 c-32.3,27.7-65.1,45.8-79.5,53.1c-33.2-16.9-163.2-90.5-163.2-208.9V126.5c0-9.1,6.6-16.9,15.6-18.5 c52.2-9.4,99.2-37.1,122.6-52.9c7.5-5,16.1-7.7,25-7.7s17.6,2.7,25,7.7c23.4,15.7,70.4,43.5,122.6,52.9c9,1.6,15.6,9.4,15.6,18.5 V239.7z"/><polygon class="st0" points="221,286 156.8,226 131.2,253.4 223.4,339.7 370,175.3 342,150.3 "/></g></g></g></svg>