<svg xmlns="http://www.w3.org/2000/svg" width="100%" height="100%" viewBox="0 0 23.4 32" preserveAspectRatio="none"><defs><style> .cls-1, .cls-2 { fill: none; stroke: #063978; stroke-width: 2px; } .cls-1 { stroke-linecap: round; stroke-linejoin: round; } .cls-2 { stroke-miterlimit: 10; } </style></defs><g id="Capa_2"><g id="Capa_1-2"><g><rect class="cls-1" x="1" y="12.7" width="21.4" height="18.23"/><circle class="cls-2" cx="11.8" cy="22.2" r="4.3"/><polyline class="cls-1" points="9.7 21.8 11.1 23.9 13.4 20.8"/><path class="cls-2" d="M18.8,12.7V7.5a6.6,6.6,0,0,0-.5-2.8A7.1,7.1,0,0,0,10,1.3,6.2,6.2,0,0,0,6.8,3.6,6.7,6.7,0,0,0,5.5,7.7v5"/><path class="cls-2" d="M8.7,12.7V6.9A3.2,3.2,0,0,1,9,5.5,3.1,3.1,0,0,1,11.9,4c2.2,0,3.2,1,3.6,2.1a5.9,5.9,0,0,1,.2,1.3v5.3"/></g></g></g></svg>