<svg id="Layer_1" xmlns="http://www.w3.org/2000/svg" xmlns:xlink="http://www.w3.org/1999/xlink" width="100%" height="100%" viewBox="0 0 3000 2000" preserveAspectRatio="none"><defs><style> .cls-1 { fill: none; } .cls-2 { fill: #2e3535; } .cls-3 { fill: url(#New_Pattern); } </style><pattern id="New_Pattern" width="781.5" height="456.23" patternUnits="userSpaceOnUse" viewBox="0 0 781.5 456.2"><rect class="cls-1" width="781.5" height="456.23"/><g><path class="cls-2" d="M671.1,344.1a2.1,2.1,0,0,1-.3-1.5l9.8-68.9a1.6,1.6,0,0,1,.8-1.3,1.8,1.8,0,0,1,1.4-.4l8.9,1.1a21.6,21.6,0,0,1,43.1,0l8.9-1.1a2,2,0,0,1,1.5.4,2.2,2.2,0,0,1,.8,1.3l9.8,68.9a1.9,1.9,0,0,1-1.7,2.2,278.9,278.9,0,0,1-40.8,2.9,277.9,277.9,0,0,1-40.8-2.9A1.9,1.9,0,0,1,671.1,344.1Zm24.6-70.7a205.7,205.7,0,0,0,35.1,0,17.6,17.6,0,0,0-35.1,0ZM675,341.2a288.7,288.7,0,0,0,38.3,2.5,287.2,287.2,0,0,0,38.2-2.5l-9.2-65-7.4.9v4.2a4.2,4.2,0,1,1-6.2,3.8,4.4,4.4,0,0,1,2.2-3.8v-3.9a208.1,208.1,0,0,1-35.3,0v3.9a4.2,4.2,0,1,1-6.2,3.8,4.4,4.4,0,0,1,2.2-3.8v-4.2l-7.3-.9Z"/><path class="cls-2" d="M771.5,216.6h11.7L797.5,286a2,2,0,0,0,2,1.6h74.6a2.1,2.1,0,0,0,2-1.6l10-47.4a2.3,2.3,0,0,0-.4-1.6,2.1,2.1,0,0,0-1.6-.8H823.5a2,2,0,0,0,0,4h58.1l-5.8,27.5H817.4a2,2,0,0,0,0,4H875l-2.5,11.9H801.1L795.4,256h57.7a2,2,0,0,0,0-4H794.6l-7.8-37.8a2,2,0,0,0-2-1.6H771.5a2,2,0,0,0,0,4Z"/><g><path class="cls-2" d="M677.9,444.4l65.6-65.6a1.9,1.9,0,0,1,1.6-.6,2.1,2.1,0,0,1,1.5.9L773,419.6a2,2,0,0,1-.3,2.5L720,474.9a2,2,0,0,1-2.5.3l-11.2-7.4h0l-29-19-.5-.3-18.5-12.2-8.3,8.3a1.9,1.9,0,0,1-2.8,0,2.1,2.1,0,0,1,0-2.9l9.4-9.4a2,2,0,0,1,2.5-.3ZM759,405.5v24.7l9.8-9.7Zm-12.4-19v56.1l8.4-8.4V399.4Zm-12.4,7.4V455l8.5-8.4a.4.4,0,0,1-.1-.3v-61l-8.4,8.4Zm-12.4,12.2v61.3l8.5-8.4V397.7Zm-12.4,12.7v46.3l8.4,5.5V410.1l-8.4,8.4ZM697,430.9V457l8.4,5.5v-40Zm-15.7,15.7,11.7,7.7V434.9Z"/><path class="cls-2" d="M777.9,441.9a7.1,7.1,0,1,1,0-10.1A7.3,7.3,0,0,1,777.9,441.9Zm-2.9-7.3a3.1,3.1,0,0,0-4.4,0,3.3,3.3,0,0,0,0,4.5,3.1,3.1,0,0,0,4.4,0A3.1,3.1,0,0,0,775,434.6Z"/></g><path class="cls-2" d="M566.3,426.2a2.1,2.1,0,0,1,0-2.9l37.2-37.1a1.7,1.7,0,0,1,1-.6h0l19.6-3.9a2.1,2.1,0,0,1,1.8.6l.7.7c4.7-4.4,13.6-11.9,17.1-8.4s-4,12.4-8.4,17l.7.7a2.5,2.5,0,0,1,.5,1.9l-3.9,19.6h0l-.5,1-37.2,37.1a1.9,1.9,0,0,1-2.8,0Zm63.1-40.4,3,3c4.8-5.1,7.3-9,8-10.9C638.5,378.6,634.5,381.1,629.4,385.8Zm-58.9,39,23,22.9,35.3-35.3,3.5-17.8v-.2l-2.8-2.7-3-3.1a68.3,68.3,0,0,0-6.4,7.5,3.1,3.1,0,0,1,1.1.9l.9,1a8,8,0,0,1,1.4,3.9,8.2,8.2,0,0,1-2.3,6.4A8,8,0,0,1,610,397a8.1,8.1,0,0,1,6.3-2.4,80.8,80.8,0,0,1,7.3-8.7l-17.7,3.5Zm48.3-24.7-.3-.3-.4-.3a4,4,0,0,0-4.2-.5,2.8,2.8,0,0,0-1.1.8,3.9,3.9,0,0,0,0,5.6,4,4,0,0,0,5.7,0,4.1,4.1,0,0,0,.7-1.1A4,4,0,0,0,618.8,400.1Z"/></g><path class="cls-2" d="M380.7,444.8h11.7l14.4,69.3a2,2,0,0,0,1.9,1.6h74.6a2,2,0,0,0,2-1.6l10-47.3a2.1,2.1,0,0,0-2-2.5H432.7a2,2,0,0,0,0,4h58.2l-5.8,27.5H426.6a2,2,0,0,0,0,4h57.6l-2.5,11.9H410.4l-5.7-27.5h57.7a2,2,0,0,0,0-4H403.8L396,442.4a1.9,1.9,0,0,0-1.9-1.6H380.7a2,2,0,0,0,0,4Z"/><g><path class="cls-2" d="M113.7,432.7H29.5A2.1,2.1,0,0,1,28,432a2.1,2.1,0,0,1-.4-1.7l15.5-71.7a2,2,0,0,1,2-1.6h9.5a17,17,0,0,1,29.1-11.8,17.6,17.6,0,0,1,5,11.8h9.5a2,2,0,0,1,2,1.6l15.5,71.7a2.1,2.1,0,0,1-.4,1.7A2.4,2.4,0,0,1,113.7,432.7ZM58.6,357H84.7a13.1,13.1,0,0,0-26.1,0Zm52.6,71.7L96.6,361H88.7v4.1a3.8,3.8,0,0,1,1.9,3.3,4,4,0,0,1-3.9,3.9,3.9,3.9,0,0,1-3.9-3.9,3.6,3.6,0,0,1,1.9-3.3V361H58.6v4.1a3.8,3.8,0,0,1,1.9,3.3,3.9,3.9,0,0,1-3.9,3.9,4,4,0,0,1-3.9-3.9,3.8,3.8,0,0,1,1.9-3.3V361H46.7L32,428.7Z"/><g><path class="cls-2" d="M-10,216.6H1.7L16,286a2,2,0,0,0,2,1.6H92.6a2.1,2.1,0,0,0,2-1.6l10-47.4a2.3,2.3,0,0,0-.4-1.6,2.1,2.1,0,0,0-1.6-.8H42a2,2,0,0,0,0,4h58.1l-5.8,27.5H35.9a2,2,0,1,0,0,4H93.5L91,283.6H19.6L13.9,256H71.6a2,2,0,1,0,0-4H13.1L5.3,214.2a2,2,0,0,0-2-1.6H-10a2,2,0,0,0-2,2A2,2,0,0,0-10,216.6Z"/><path class="cls-2" d="M82.3,305.1a7.1,7.1,0,1,1,7.1-7.1A7.1,7.1,0,0,1,82.3,305.1Zm0-4a3.1,3.1,0,1,0-3.2-3.1A3.1,3.1,0,0,0,82.3,301.1Z"/><path class="cls-2" d="M27.5,305.1a7.1,7.1,0,1,1,7.2-7.1A7.1,7.1,0,0,1,27.5,305.1Zm0-4a3.1,3.1,0,1,0-3.1-3.1A3.1,3.1,0,0,0,27.5,301.1Z"/></g><path class="cls-2" d="M128.2,523.8a10.1,10.1,0,0,1,0,14.4,9.8,9.8,0,0,1-7.2,3,10,10,0,0,1-7.3-3c0-.1-.1-.1-.2-.2L88.6,501.9A26,26,0,0,1,71.7,508h0a26.3,26.3,0,0,1-26.2-26.2,26.3,26.3,0,1,1,46.4,16.8l36,24.9ZM94,481.8a22.2,22.2,0,1,0-6.5,15.7A22.2,22.2,0,0,0,94,481.8Zm31.5,44.9L96.8,506.8l19.9,28.7a6.3,6.3,0,0,0,4.3,1.7,6.2,6.2,0,0,0,4.5-10.5Z"/><g><path class="cls-2" d="M245.7,366.4a11.7,11.7,0,0,1-8.8,11.1v59.1a2,2,0,0,1-2,2H158.4a2,2,0,0,1-2-2V377.7a11.7,11.7,0,0,1-9.7-11.3c0-5.6,7.5-16.9,8.4-18.2a2.2,2.2,0,0,1,1.7-.9h78.9a2.2,2.2,0,0,1,1.7.9C238.2,349.5,245.7,361.1,245.7,366.4Zm-66.8,37H160.4v31.2h18.5Zm54-14.5h-50v45.7h50Zm0-11.1a11.7,11.7,0,0,1-8.2-5,11.2,11.2,0,0,1-9.5,5.1,11.5,11.5,0,0,1-9.5-5.1,11.2,11.2,0,0,1-9.5,5.1,11.5,11.5,0,0,1-9.5-5.1,11.2,11.2,0,0,1-9.5,5.1,11.5,11.5,0,0,1-9.5-5.1,11.1,11.1,0,0,1-7.3,4.9v21.7h18.5V386.9a2,2,0,0,1,2-2h52Zm8.8-11.4c0-2.9-4.1-10.4-7.1-15.1H157.8c-2.9,4.6-7.1,12-7.1,15.1a7.7,7.7,0,0,0,7.5,7.5,7.5,7.5,0,0,0,7.5-7.5,2,2,0,0,1,4,0,7.5,7.5,0,0,0,15,0,2,2,0,0,1,4,0,7.5,7.5,0,0,0,15,0,2,2,0,0,1,4,0,7.5,7.5,0,0,0,15,0,2,2,0,0,1,4,0,7.6,7.6,0,0,0,7.5,7.5A7.8,7.8,0,0,0,241.7,366.4Z"/><path class="cls-2" d="M195.1,410a1.9,1.9,0,0,0,1.4-.5l9-9.1a2,2,0,1,0-2.8-2.8l-9,9a2.1,2.1,0,0,0,0,2.9A1.7,1.7,0,0,0,195.1,410Z"/><path class="cls-2" d="M195.1,427.4a2,2,0,0,0,1.4-.6l26.4-26.4a2,2,0,1,0-2.8-2.8L193.7,424a1.9,1.9,0,0,0,0,2.8A1.8,1.8,0,0,0,195.1,427.4Z"/><path class="cls-2" d="M220.1,415l-9.1,9a1.9,1.9,0,0,0,0,2.8,2,2,0,0,0,1.4.6,2,2,0,0,0,1.5-.6l9-9a2,2,0,1,0-2.8-2.8Z"/><path class="cls-2" d="M169.7,421.8a2.8,2.8,0,1,0,0-5.6,2.8,2.8,0,1,0,0,5.6Z"/></g></g><g><g><path class="cls-2" d="M677.9-11.9l65.6-65.5a1.7,1.7,0,0,1,1.6-.6,1.9,1.9,0,0,1,1.5.9L773-36.6a2,2,0,0,1-.3,2.5L720,18.7a2,2,0,0,1-2.5.2l-11.2-7.3h0l-29-19.1c-.2,0-.3-.1-.5-.3L658.3-19.9,650-11.7a1.9,1.9,0,0,1-2.8,0,1.9,1.9,0,0,1,0-2.8l9.4-9.4a2,2,0,0,1,2.5-.3ZM759-50.7V-26l9.8-9.8Zm-12.4-19v56.1L755-22V-56.7h0Zm-12.4,7.4V-1.2l8.5-8.5a.4.4,0,0,1-.1-.3V-70.9l-8.4,8.4ZM721.8-50.1V11.2l8.5-8.5c-.1,0-.1-.1-.1-.2v-61ZM709.4-37.5V8.9l8.4,5.5V-46.1l-8.4,8.4ZM697-25.3V.7l8.4,5.5V-33.7ZM681.3-9.6,693-1.9V-21.3Z"/><path class="cls-2" d="M729.1,14.3a7.1,7.1,0,0,1,10.1,0,7.3,7.3,0,0,1,0,10.1,7.3,7.3,0,0,1-10.1,0A7.1,7.1,0,0,1,729.1,14.3Zm2.8,2.8a3.1,3.1,0,1,0,4.4,4.4,3,3,0,0,0,0-4.4A3.1,3.1,0,0,0,731.9,17.1Z"/></g><g><path class="cls-2" d="M644.3,29.9V86.4a1.9,1.9,0,0,1-2,2H558.1a2,2,0,0,1-2-2V29.9a2,2,0,0,1,2-2h84.2A1.9,1.9,0,0,1,644.3,29.9Zm-4,19.8H560.1V84.4h80.2Zm0-17.8H560.1v8h80.2Z"/><path class="cls-2" d="M652.4,17.9h-72a2,2,0,0,0,0,4h70V76.4a2,2,0,0,0,4,0V19.9A2,2,0,0,0,652.4,17.9Z"/><path class="cls-2" d="M565.2,61.2h28.2a2,2,0,0,0,0-4H565.2a2,2,0,0,0,0,4Z"/><path class="cls-2" d="M565.2,70.3h15.2a2,2,0,0,0,0-4H565.2a2,2,0,0,0,0,4Z"/><path class="cls-2" d="M565.2,79.3h23.3a2,2,0,0,0,0-4H565.2a2,2,0,0,0,0,4Z"/><path class="cls-2" d="M592.4,77.3a2,2,0,0,0,2,2h21.7a2,2,0,0,0,0-4H594.4A2,2,0,0,0,592.4,77.3Z"/><path class="cls-2" d="M622.5,79.3h12.7a2,2,0,0,0,0-4H622.5a2,2,0,0,0,0,4Z"/></g><path class="cls-2" d="M807.3,116.9l-13,13a1.9,1.9,0,0,1-2.8,0l-4.9-4.8-31.8,31.8a1.9,1.9,0,0,1-2.8,0l-50.9-50.8a2.1,2.1,0,0,1,0-2.9L733,71.4l-4.9-4.8a2.1,2.1,0,0,1,0-2.9l13-13a1.9,1.9,0,0,1,2.8,0l20.2,20.2a15.4,15.4,0,0,1-.8-1.9c-1-2.9-.9-5.7.5-7.8a7.7,7.7,0,0,1,5.4-3.5,6.4,6.4,0,0,1,5.1,2.1,11,11,0,0,1,3,7.4,31.1,31.1,0,0,1-1.4,9.1c4.1-1.4,10.7-3.2,16.1-3.2s7.6,1.8,9.1,3.4a9.9,9.9,0,0,1,2.7,9.3,8.3,8.3,0,0,1-4.1,5.4c-2.2,1.2-6,2.3-11.9.5a28.2,28.2,0,0,1-5.4-2.5l24.9,24.9A1.9,1.9,0,0,1,807.3,116.9ZM776.5,80.3c3.2,2.5,8.7,6.4,12.5,7.6s6.6,1,8.7-.2a4.2,4.2,0,0,0,2.3-2.9,6.1,6.1,0,0,0-1.7-5.5c-1.4-1.5-3.6-2.2-6.3-2.2C786.9,77.1,780.3,79,776.5,80.3Zm-4.7-4.7a23.2,23.2,0,0,0,1.5-8.3,7.4,7.4,0,0,0-1.9-4.7,2.8,2.8,0,0,0-1.8-.9,3.2,3.2,0,0,0-2.4,1.6,4.6,4.6,0,0,0-.1,4.3A33.1,33.1,0,0,0,771.8,75.6Zm-30.3,38.1L719.2,91.4l-.3-.3-13.5,13.5L728,127.2Zm16.9-16.9L735.8,74.2,721.7,88.3l.3.3,22.3,22.3Zm8.5,42.3-.3-.2-22.3-22.4-13.5,13.6,22.6,22.6Zm16.9-16.9L761.2,99.6l-14,14.1L769.5,136l.2.3Zm19.3-6.7L742.5,55,732.4,65.1l60.5,60.6Z"/><path class="cls-2" d="M746.1,214c-.4.9-1.5,2.4-4.8,2.4H656.2c-3.3,0-4.4-1.5-4.7-2.4s-.6-3,2.1-5.5l38.9-35.2a8.7,8.7,0,0,1,4.3-2.1v-3.7a2,2,0,0,1,2-2,7.6,7.6,0,1,0-7.6-7.6,2,2,0,0,1-4,0,11.6,11.6,0,1,1,13.6,11.4v1.9a8.7,8.7,0,0,1,4.3,2.1l38.8,35.2C746.7,211,746.5,213,746.1,214Zm-4-1.6a3,3,0,0,0-.8-.9l-38.9-35.2a5.2,5.2,0,0,0-3.6-1.4,5.1,5.1,0,0,0-3.6,1.4l-38.9,35.2a3,3,0,0,0-.8.9h86.6Z"/></g><g><path class="cls-2" d="M504.5,204.6H420.3a2.4,2.4,0,0,1-1.6-.7,2.5,2.5,0,0,1-.4-1.7l15.5-71.7a2.1,2.1,0,0,1,2-1.6h9.6a17,17,0,0,1,34,0H489a2,2,0,0,1,1.9,1.6l15.5,71.7a1.8,1.8,0,0,1-.4,1.7A2,2,0,0,1,504.5,204.6Zm-55.1-75.7h26a13,13,0,0,0-13-12.8A13,13,0,0,0,449.4,128.9ZM502,200.6l-14.6-67.7h-8v4a4.1,4.1,0,0,1,1.9,3.4,3.9,3.9,0,0,1-3.9,3.9,4,4,0,0,1-3.9-3.9,4.1,4.1,0,0,1,1.9-3.4v-4h-26v4a4.1,4.1,0,0,1,1.9,3.4,4,4,0,0,1-3.9,3.9,3.9,3.9,0,0,1-2-7.3v-4h-8l-14.6,67.7Z"/><path class="cls-2" d="M280.4,115.9a1.8,1.8,0,0,1-.4-1.4l9.8-68.9a2,2,0,0,1,.8-1.3,1.7,1.7,0,0,1,1.5-.4l8.9,1a21.6,21.6,0,0,1,21.5-19.5,21.4,21.4,0,0,1,15.3,6.3,21.9,21.9,0,0,1,6.3,13.2l8.9-1a1.7,1.7,0,0,1,1.5.4,1.6,1.6,0,0,1,.7,1.3l9.8,68.9a1.9,1.9,0,0,1-1.7,2.2,292.4,292.4,0,0,1-40.8,2.9,293.5,293.5,0,0,1-40.8-2.9A1.8,1.8,0,0,1,280.4,115.9ZM305,45.3a228.5,228.5,0,0,0,35.1,0,17.7,17.7,0,0,0-17.6-15.9A17.6,17.6,0,0,0,305,45.3ZM284.3,113a287.3,287.3,0,0,0,38.2,2.6,288.8,288.8,0,0,0,38.3-2.6l-9.2-64.9-7.4.9v4.2a4.3,4.3,0,0,1-2,8,4.3,4.3,0,0,1-4.3-4.3,4.1,4.1,0,0,1,2.3-3.7V49.3a208.1,208.1,0,0,1-35.3,0v3.9a4.3,4.3,0,0,1-2,8,4.3,4.3,0,0,1-4.3-4.3,4.1,4.1,0,0,1,2.3-3.7V49l-7.4-.9Z"/><g><path class="cls-2" d="M380.7-11.5h11.7l14.4,69.4a1.9,1.9,0,0,0,1.9,1.5h74.6a2,2,0,0,0,2-1.5l10-47.4a1.8,1.8,0,0,0-.4-1.6,2.1,2.1,0,0,0-1.6-.8H432.7a2,2,0,0,0,0,4h58.2l-5.8,27.5H426.6a2,2,0,0,0,0,4h57.6l-2.5,11.8H410.4l-5.7-27.5h57.7a2,2,0,0,0,0-4H403.8L396-13.9a2,2,0,0,0-1.9-1.6H380.7a2,2,0,0,0-2,2A2,2,0,0,0,380.7-11.5Z"/><path class="cls-2" d="M473,77a7.1,7.1,0,1,1,7.2-7.1A7.1,7.1,0,0,1,473,77Zm0-4a3.1,3.1,0,1,0-3.1-3.1A3.1,3.1,0,0,0,473,73Z"/><path class="cls-2" d="M418.3,77a7.1,7.1,0,1,1,7.1-7.1A7.1,7.1,0,0,1,418.3,77Zm0-4a3.1,3.1,0,1,0-3.1-3.1A3.1,3.1,0,0,0,418.3,73Z"/></g><g><path class="cls-2" d="M287.2,216.3l65.6-65.6a1.7,1.7,0,0,1,1.6-.6,1.9,1.9,0,0,1,1.4.9l26.4,40.5a2,2,0,0,1-.2,2.5l-52.8,52.8a1.8,1.8,0,0,1-2.5.2l-11.1-7.3h0l-29-19a1,1,0,0,1-.5-.4l-18.5-12.1-8.3,8.3a2.1,2.1,0,0,1-2.9-2.9l9.5-9.4a2,2,0,0,1,2.5-.3Zm81.1-38.9v24.7l9.7-9.7Zm-12.4-19v56.1l8.4-8.4V171.3Zm-12.4,7.4v61.1l8.4-8.5V157.2l-8.4,8.4ZM331.1,178v61.3l8.4-8.4V169.6Zm-12.4,12.6V237l8.4,5.5V182l-8.4,8.4Zm-12.4,12.2v26l8.4,5.6v-40Zm-15.7,15.7,11.7,7.7V206.8Z"/><path class="cls-2" d="M387.1,213.8a7.1,7.1,0,1,1,0-10.1A7.1,7.1,0,0,1,387.1,213.8Zm-2.8-7.3a3.3,3.3,0,0,0-4.5,0,3.1,3.1,0,0,0,0,4.4,3.1,3.1,0,0,0,4.5,0A3.1,3.1,0,0,0,384.3,206.5Z"/><path class="cls-2" d="M338.3,242.4a7.1,7.1,0,1,1,10.1,10.1,7.3,7.3,0,0,1-10.1,0A7.1,7.1,0,0,1,338.3,242.4Zm2.9,2.8a3.1,3.1,0,1,0,4.4,4.4,3.1,3.1,0,0,0-4.4-4.4Z"/></g><g><path class="cls-2" d="M253.6,258v56.5a2,2,0,0,1-2,2H167.3a2,2,0,0,1-2-2V258a2,2,0,0,1,2-2h84.3A2,2,0,0,1,253.6,258Zm-4,19.8H169.3v34.7h80.3Zm0-17.8H169.3v8h80.3Z"/><path class="cls-2" d="M261.6,246h-72a2,2,0,0,0,0,4h70v54.5a2,2,0,0,0,4,0V248A2,2,0,0,0,261.6,246Z"/><path class="cls-2" d="M174.5,289.3h28.1a2,2,0,0,0,0-4H174.5a2,2,0,0,0,0,4Z"/><path class="cls-2" d="M174.5,298.4h15.1a2,2,0,1,0,0-4H174.5a2,2,0,0,0,0,4Z"/><path class="cls-2" d="M174.5,307.4h23.3a2,2,0,0,0,0-4H174.5a2,2,0,0,0,0,4Z"/><path class="cls-2" d="M201.6,305.4a2,2,0,0,0,2,2h21.7a2,2,0,1,0,0-4H203.6A2,2,0,0,0,201.6,305.4Z"/><path class="cls-2" d="M231.8,307.4h12.6a2,2,0,0,0,0-4H231.8a2,2,0,0,0,0,4Z"/></g><path class="cls-2" d="M175.6,198.1a2.1,2.1,0,0,1,0-2.9l37.1-37.1a2.7,2.7,0,0,1,1-.6h0l19.6-3.9a1.9,1.9,0,0,1,1.8.6l.7.7c4.7-4.4,13.7-11.9,17.1-8.5s-4,12.4-8.4,17.1l.7.7a2.1,2.1,0,0,1,.6,1.8l-3.9,19.7h0a2.7,2.7,0,0,1-.6,1l-37.1,37.1a2,2,0,0,1-1.5.6,2,2,0,0,1-1.4-.6Zm63.1-40.4,3,3c4.7-5.1,7.2-9.1,7.9-10.9C247.7,150.5,243.7,153,238.7,157.7Zm-58.9,38.9,22.9,23L238,184.3l3.6-17.8v-.2l-2.7-2.7-3.1-3.1a78.3,78.3,0,0,0-6.3,7.5,3.9,3.9,0,0,1,1,.8,4.4,4.4,0,0,1,.9,1.1,8,8,0,0,1,1.4,3.9,7.9,7.9,0,0,1-2.3,6.4,8,8,0,0,1-11.3,0,8.1,8.1,0,0,1,0-11.4,8.2,8.2,0,0,1,6.4-2.3,70.6,70.6,0,0,1,7.3-8.7l-17.8,3.5ZM228,172l-.3-.3-.3-.3a4,4,0,0,0-4.2-.5,2.8,2.8,0,0,0-1.1.8,4,4,0,1,0,5.6,5.6,4.4,4.4,0,0,0,.8-1.1A4,4,0,0,0,228,172Z"/><g><path class="cls-2" d="M475.4,240.7a2,2,0,0,0-2.8,2.8,14.4,14.4,0,0,1,0,20.3,1.9,1.9,0,0,0,0,2.8,2,2,0,0,0,1.4.6,1.8,1.8,0,0,0,1.4-.6,18.2,18.2,0,0,0,0-25.9Z"/><path class="cls-2" d="M519,295.7a10.3,10.3,0,0,1,0,14.4,10.5,10.5,0,0,1-7.3,3,10.2,10.2,0,0,1-7.2-3l-.2-.3-25-36a25.7,25.7,0,0,1-16.8,6.1h0a26.3,26.3,0,1,1,26.2-26.2,26.4,26.4,0,0,1-6,16.8l36,24.9Zm-34.3-42a22.2,22.2,0,1,0-6.5,15.7A22.2,22.2,0,0,0,484.7,253.7Zm31.5,44.9-28.6-19.9,19.8,28.7a6.3,6.3,0,0,0,4.3,1.7,5.9,5.9,0,0,0,4.4-1.8A6.2,6.2,0,0,0,516.2,298.6Z"/></g><g><path class="cls-2" d="M636.5,138.3a11.9,11.9,0,0,1-8.8,11.1v59.1a2,2,0,0,1-2,2H549.2a2,2,0,0,1-2-2V149.6a11.7,11.7,0,0,1-9.7-11.3c0-5.6,7.5-16.9,8.4-18.2a2,2,0,0,1,1.6-.9h78.9a2.2,2.2,0,0,1,1.7.9C629,121.4,636.5,132.9,636.5,138.3Zm-66.8,37H551.2v31.2h18.5Zm54-14.5h-50v45.7h50Zm0-11.1a11.5,11.5,0,0,1-8.2-5,11.5,11.5,0,0,1-9.5,5.1,11.2,11.2,0,0,1-9.5-5.1,11.5,11.5,0,0,1-9.5,5.1,11.2,11.2,0,0,1-9.5-5.1,11.5,11.5,0,0,1-9.5,5.1,11.2,11.2,0,0,1-9.5-5.1,11.1,11.1,0,0,1-7.3,4.8v21.8h18.5V158.8a2,2,0,0,1,2-2h52Zm8.8-11.4c0-2.9-4.2-10.4-7.1-15.1H548.6c-3,4.6-7.1,12-7.1,15.1a7.5,7.5,0,0,0,15,0,2,2,0,1,1,4,0,7.5,7.5,0,0,0,15,0,2,2,0,1,1,4,0,7.5,7.5,0,0,0,15,0,2,2,0,1,1,4,0,7.5,7.5,0,0,0,15,0,2,2,0,1,1,4,0,7.5,7.5,0,0,0,7.5,7.5A7.8,7.8,0,0,0,632.5,138.3Z"/><path class="cls-2" d="M585.8,181.9a2,2,0,0,0,1.4-.6l9-9a2,2,0,0,0-2.8-2.8l-9,9a2.1,2.1,0,0,0,0,2.9A2.4,2.4,0,0,0,585.8,181.9Z"/><path class="cls-2" d="M585.8,199.3a2,2,0,0,0,1.4-.6l26.4-26.4a2,2,0,1,0-2.8-2.8l-26.4,26.4a1.9,1.9,0,0,0,0,2.8A2,2,0,0,0,585.8,199.3Z"/><path class="cls-2" d="M610.8,186.9l-9,9a1.9,1.9,0,0,0,0,2.8,1.9,1.9,0,0,0,2.8,0l9-9a2,2,0,1,0-2.8-2.8Z"/><path class="cls-2" d="M560.4,193.7a2.9,2.9,0,0,0,2.9-2.8,2.9,2.9,0,0,0-5.7,0A2.9,2.9,0,0,0,560.4,193.7Z"/></g><path class="cls-2" d="M416.6,345l-13,13a2.1,2.1,0,0,1-2.9,0l-4.8-4.8L364.1,385a2.1,2.1,0,0,1-2.9,0l-50.8-50.8a2.1,2.1,0,0,1,0-2.9l31.8-31.8-4.8-4.8a2.1,2.1,0,0,1,0-2.9l13-13a2.1,2.1,0,0,1,2.8,0L373.4,299a15.4,15.4,0,0,1-.8-1.9,8.8,8.8,0,0,1,.4-7.8,7.4,7.4,0,0,1,5.4-3.4,6.2,6.2,0,0,1,5.1,2,10.2,10.2,0,0,1,3,7.4,28.1,28.1,0,0,1-1.4,9.1c4.2-1.4,10.7-3.2,16.2-3.2s7.5,1.8,9.1,3.4a10.1,10.1,0,0,1,2.7,9.3,8.4,8.4,0,0,1-4.2,5.4c-2.1,1.3-6,2.3-11.8.5a25.6,25.6,0,0,1-5.4-2.5l24.9,24.9A2.1,2.1,0,0,1,416.6,345Zm-30.9-36.6c3.3,2.5,8.7,6.5,12.5,7.6s6.6,1,8.7-.1a4.7,4.7,0,0,0,2.3-2.9,6,6,0,0,0-1.7-5.6,8.7,8.7,0,0,0-6.2-2.2C396.1,305.2,389.6,307.1,385.7,308.4Zm-4.6-4.6a26.8,26.8,0,0,0,1.4-8.4,6.8,6.8,0,0,0-1.8-4.7,2.8,2.8,0,0,0-1.9-.9,3.8,3.8,0,0,0-2.4,1.6,4.9,4.9,0,0,0-.1,4.3A36.1,36.1,0,0,0,381.1,303.8Zm-30.4,38-22.3-22.3c-.1-.1-.2-.2-.2-.3l-13.6,13.6,22.6,22.6Zm16.9-16.9L345,302.3l-14.1,14.1.4.3L353.6,339Zm8.6,42.3-.3-.2-22.3-22.4L340,358.2l22.6,22.6Zm16.9-16.8-22.6-22.6-14.1,14,22.3,22.3.3.3Zm19.2-6.8-60.5-60.5-10.2,10.2,60.5,60.5Z"/><g><path class="cls-2" d="M584.7,278a7.9,7.9,0,0,1,7.9-7.9,7.9,7.9,0,1,1,0,15.8A7.9,7.9,0,0,1,584.7,278Zm5,0a2.9,2.9,0,0,0,2.9,2.9,2.9,2.9,0,1,0,0-5.8A2.9,2.9,0,0,0,589.7,278Z"/><path class="cls-2" d="M610,310.7a8,8,0,0,1-7.9,8h0a8,8,0,1,1,7.9-8Zm-5,0a2.9,2.9,0,0,0-2.9-2.9,3,3,0,1,0,0,5.9A2.9,2.9,0,0,0,605,310.7Z"/><path class="cls-2" d="M616.8,271.4l-42.4,42.4a2.4,2.4,0,0,0,0,3.5,2.5,2.5,0,0,0,1.8.8,2.5,2.5,0,0,0,1.7-.8L620.3,275a2.5,2.5,0,0,0,0-3.6A2.4,2.4,0,0,0,616.8,271.4Z"/><path class="cls-2" d="M638.2,294.4a41.5,41.5,0,1,1-41.5-41.5A41.5,41.5,0,0,1,638.2,294.4Zm-4,0a37.5,37.5,0,1,0-37.5,37.4A37.5,37.5,0,0,0,634.2,294.4Z"/></g><g><path class="cls-2" d="M490.7,326.4a2.4,2.4,0,0,1,1.5.9l25.2,36.6a2.1,2.1,0,0,1,.3,1.5l23.4,23.5a1.9,1.9,0,0,1,0,2.8l-46.9,46.9a1.9,1.9,0,0,1-2.8,0l-24.5-24.5-36.5-25a1.9,1.9,0,0,1-.8-1.5,1.8,1.8,0,0,1,.5-1.6l59-59A2.3,2.3,0,0,1,490.7,326.4Zm24.4,42.1L471,412.6l21.8,21.8,44.1-44.1Zm-24.9-37-55.5,55.6L467.9,410l45.2-45.2Z"/><polygon class="cls-2" points="480.4 411.7 477.4 414.7 479.8 417.1 482.8 414.1 480.4 411.7"/><polygon class="cls-2" points="485.7 406.4 482.7 409.4 485.1 411.8 488.1 408.8 485.7 406.4"/><polygon class="cls-2" points="491 401.1 488 404.1 490.4 406.5 493.4 403.5 491 401.1"/><polygon class="cls-2" points="496.2 395.8 493.3 398.8 495.7 401.2 498.7 398.2 496.2 395.8"/><polygon class="cls-2" points="501.5 390.5 498.6 393.5 501 395.9 504 392.9 501.5 390.5"/><polygon class="cls-2" points="506.8 385.2 503.9 388.2 506.3 390.6 509.3 387.6 506.8 385.2"/><polygon class="cls-2" points="512.1 379.9 509.1 382.9 511.6 385.3 514.6 382.3 512.1 379.9"/><polygon class="cls-2" points="517.4 374.6 514.4 377.6 516.9 380 519.9 377.1 517.4 374.6"/><polygon class="cls-2" points="484.4 415.7 481.4 418.7 483.9 421.2 486.9 418.2 484.4 415.7"/><polygon class="cls-2" points="489.7 410.5 486.7 413.4 489.2 415.9 492.2 412.9 489.7 410.5"/><polygon class="cls-2" points="495 405.2 492 408.1 494.5 410.6 497.5 407.6 495 405.2"/><polygon class="cls-2" points="500.3 399.9 497.3 402.9 499.8 405.3 502.8 402.3 500.3 399.9"/><polygon class="cls-2" points="505.6 394.6 502.6 397.6 505.1 400 508.1 397 505.6 394.6"/><polygon class="cls-2" points="510.9 389.3 507.9 392.3 510.4 394.7 513.4 391.7 510.9 389.3"/><polygon class="cls-2" points="516.2 384 513.2 387 515.7 389.4 518.6 386.4 516.2 384"/><polygon class="cls-2" points="488.5 419.8 485.5 422.8 488 425.3 491 422.3 488.5 419.8"/><polygon class="cls-2" points="493.8 414.5 490.8 417.5 493.3 420 496.2 417 493.8 414.5"/><polygon class="cls-2" points="499.1 409.2 496.1 412.2 498.6 414.7 501.5 411.7 499.1 409.2"/><polygon class="cls-2" points="504.4 403.9 501.4 406.9 503.9 409.4 506.8 406.4 504.4 403.9"/><polygon class="cls-2" points="509.7 398.6 506.7 401.6 509.1 404.1 512.1 401.1 509.7 398.6"/><polygon class="cls-2" points="515 393.3 512 396.3 514.4 398.8 517.4 395.8 515 393.3"/><polygon class="cls-2" points="521.5 378.7 518.5 381.7 522.6 385.7 517.3 391 519.7 393.5 528 385.2 521.5 378.7"/><polygon class="cls-2" points="492.6 423.9 489.6 426.9 492 429.3 495 426.3 492.6 423.9"/><polygon class="cls-2" points="513.8 402.7 494.9 421.6 497.3 424 516.2 405.2 513.8 402.7"/><polygon class="cls-2" points="519.1 397.4 516.1 400.4 518.5 402.9 521.5 399.9 519.1 397.4"/><polygon class="cls-2" points="524.4 392.1 521.4 395.1 523.8 397.6 526.8 394.6 524.4 392.1"/><polygon class="cls-2" points="529.1 392.3 532.1 389.3 529.6 386.8 526.7 389.8 529.1 392.3"/><path class="cls-2" d="M462.2,388.3a1.8,1.8,0,0,0,.4-1.1V370.9a1.5,1.5,0,0,0-3,0v16.3a1.5,1.5,0,0,0,1.5,1.5A1.5,1.5,0,0,0,462.2,388.3Z"/><path class="cls-2" d="M491.7,380.5a1.4,1.4,0,0,0,1.1-.5,1.2,1.2,0,0,0,.4-1V362.7a1.4,1.4,0,0,0-1.5-1.5,1.5,1.5,0,0,0-1.5,1.5V379A1.5,1.5,0,0,0,491.7,380.5Z"/><path class="cls-2" d="M476.4,392.7a1.4,1.4,0,0,0,1.5-1.5V355a1.5,1.5,0,0,0-1.5-1.5,1.5,1.5,0,0,0-1.5,1.5v36.2A1.5,1.5,0,0,0,476.4,392.7Z"/></g><path class="cls-2" d="M355.3,442.1c-.3.9-1.4,2.5-4.7,2.5H265.5c-3.3,0-4.4-1.6-4.8-2.5s-.6-3,2.2-5.5l38.8-35.2a8.7,8.7,0,0,1,4.3-2.1v-3.7a2,2,0,0,1,2-2,7.6,7.6,0,1,0-7.6-7.6,2,2,0,0,1-4,0A11.6,11.6,0,1,1,310,397.4v1.9a8.7,8.7,0,0,1,4.3,2.1l38.9,35.2C355.9,439.1,355.7,441.1,355.3,442.1Zm-3.9-1.6-.9-.9-38.9-35.2a5,5,0,0,0-3.6-1.3,5.3,5.3,0,0,0-3.6,1.3l-38.8,35.2-.9.9h86.7Z"/></g><g><g><path class="cls-2" d="M84.7,12.6a2,2,0,0,0-2.8,2.8A14.1,14.1,0,0,1,86,25.5a14.2,14.2,0,0,1-4.1,10.2,1.9,1.9,0,0,0,0,2.8,1.9,1.9,0,0,0,2.8,0,18.6,18.6,0,0,0,5.3-13A18.1,18.1,0,0,0,84.7,12.6Z"/><path class="cls-2" d="M128.2,67.5A10.3,10.3,0,0,1,121,85a10.5,10.5,0,0,1-7.3-3l-.2-.3-24.9-36a26.5,26.5,0,0,1-16.9,6.1h0a25.7,25.7,0,0,1-18.5-7.7,25.9,25.9,0,0,1-7.7-18.6A25.7,25.7,0,0,1,53.2,7,26.2,26.2,0,0,1,90.3,7,25.7,25.7,0,0,1,98,25.5a26.1,26.1,0,0,1-6.1,16.8l36,25ZM94,25.5A22.3,22.3,0,1,0,56,41.3,22.3,22.3,0,0,0,94,25.5Zm31.5,45L96.8,50.6l19.9,28.7A6.3,6.3,0,0,0,121,81a6.2,6.2,0,0,0,4.5-10.5Z"/></g><path class="cls-2" d="M25.8,116.9l-13,13a1.9,1.9,0,0,1-2.8,0l-4.9-4.8-31.8,31.8a1.9,1.9,0,0,1-2.8,0l-50.9-50.8a2.1,2.1,0,0,1,0-2.9l31.9-31.8-4.9-4.8a2.1,2.1,0,0,1,0-2.9l13-13a1.9,1.9,0,0,1,2.8,0l20.2,20.2a15.4,15.4,0,0,1-.8-1.9c-1-2.9-.9-5.7.5-7.8a7.7,7.7,0,0,1,5.4-3.5,6.4,6.4,0,0,1,5.1,2.1,11,11,0,0,1,3,7.4,31.1,31.1,0,0,1-1.4,9.1c4.1-1.4,10.7-3.2,16.1-3.2s7.6,1.8,9.1,3.4a9.9,9.9,0,0,1,2.7,9.3,8.3,8.3,0,0,1-4.1,5.4c-2.2,1.2-6,2.3-11.9.5A28.2,28.2,0,0,1,.9,89.2l24.9,24.9A1.9,1.9,0,0,1,25.8,116.9ZM-5,80.3c3.2,2.5,8.7,6.4,12.5,7.6s6.6,1,8.7-.2a4.2,4.2,0,0,0,2.3-2.9,6.1,6.1,0,0,0-1.7-5.5c-1.4-1.5-3.6-2.2-6.3-2.2C5.4,77.1-1.2,79-5,80.3Zm-4.7-4.7a23.2,23.2,0,0,0,1.5-8.3,7.4,7.4,0,0,0-1.9-4.7,2.8,2.8,0,0,0-1.8-.9,3.2,3.2,0,0,0-2.4,1.6,4.6,4.6,0,0,0-.1,4.3A33.1,33.1,0,0,0-9.7,75.6ZM-40,113.7-62.3,91.4l-.3-.3-13.5,13.5,22.6,22.6Zm16.9-16.9L-45.7,74.2-59.8,88.3l.3.3,22.3,22.3Zm8.5,42.3-.3-.2-22.3-22.4-13.5,13.6,22.6,22.6ZM2.3,122.2-20.3,99.6l-14,14.1L-12,136l.2.3Zm19.3-6.7L-39,55-49.1,65.1l60.5,60.6Z"/><g><path class="cls-2" d="M193.9,49.9a8,8,0,1,1,8,7.9A7.9,7.9,0,0,1,193.9,49.9Zm5,0a3,3,0,0,0,3,2.9,2.9,2.9,0,1,0,0-5.8A3,3,0,0,0,198.9,49.9Z"/><path class="cls-2" d="M219.3,82.6a8,8,0,0,1-8,8h0a8,8,0,1,1,8-8Zm-5,0a3,3,0,0,0-3-2.9,2.9,2.9,0,0,0-2.9,2.9,3,3,0,0,0,2.9,3A3.1,3.1,0,0,0,214.3,82.6Z"/><path class="cls-2" d="M226,43.3,183.6,85.7a2.6,2.6,0,0,0,0,3.5,2.4,2.4,0,0,0,3.6,0l42.4-42.4a2.6,2.6,0,0,0,0-3.5A2.5,2.5,0,0,0,226,43.3Z"/><path class="cls-2" d="M247.5,66.3A41.5,41.5,0,1,1,206,24.8,41.5,41.5,0,0,1,247.5,66.3Zm-4,0A37.5,37.5,0,1,0,206,103.7,37.5,37.5,0,0,0,243.5,66.3Z"/></g><g><path class="cls-2" d="M100,98.3a1.9,1.9,0,0,1,1.4.9l25.2,36.6a2.1,2.1,0,0,1,.3,1.5l23.5,23.5a1.9,1.9,0,0,1,0,2.8l-46.9,46.9a2.1,2.1,0,0,1-2.9,0L76.1,186,39.7,161a2.4,2.4,0,0,1-.9-1.5,1.9,1.9,0,0,1,.6-1.6l59-59A2.3,2.3,0,0,1,100,98.3Zm24.3,42.1-44,44.1L102,206.3l44.1-44.1Zm-24.8-37L43.9,159l33.3,22.9,45.2-45.2Z"/><polygon class="cls-2" points="89.6 183.6 86.6 186.5 89.1 189 92.1 186 89.6 183.6"/><polygon class="cls-2" points="94.9 178.3 91.9 181.3 94.4 183.7 97.4 180.7 94.9 178.3"/><polygon class="cls-2" points="100.2 173 97.2 176 99.7 178.4 102.6 175.4 100.2 173"/><polygon class="cls-2" points="105.5 167.7 102.5 170.7 105 173.1 107.9 170.1 105.5 167.7"/><polygon class="cls-2" points="110.8 162.4 107.8 165.4 110.2 167.8 113.2 164.8 110.8 162.4"/><polygon class="cls-2" points="116.1 157.1 113.1 160.1 115.5 162.5 118.5 159.5 116.1 157.1"/><polygon class="cls-2" points="121.4 151.8 118.4 154.8 120.8 157.2 123.8 154.2 121.4 151.8"/><polygon class="cls-2" points="126.7 146.5 123.7 149.5 126.1 151.9 129.1 148.9 126.7 146.5"/><polygon class="cls-2" points="93.7 187.6 90.7 190.6 93.1 193.1 96.1 190.1 93.7 187.6"/><polygon class="cls-2" points="99 182.3 96 185.3 98.4 187.8 101.4 184.8 99 182.3"/><polygon class="cls-2" points="104.3 177 101.3 180 103.7 182.5 106.7 179.5 104.3 177"/><polygon class="cls-2" points="109.6 171.7 106.6 174.7 109 177.2 112 174.2 109.6 171.7"/><polygon class="cls-2" points="114.9 166.5 111.9 169.4 114.3 171.9 117.3 168.9 114.9 166.5"/><polygon class="cls-2" points="120.2 161.2 117.2 164.1 119.6 166.6 122.6 163.6 120.2 161.2"/><polygon class="cls-2" points="125.5 155.9 122.5 158.9 124.9 161.3 127.9 158.3 125.5 155.9"/><polygon class="cls-2" points="97.8 191.7 94.8 194.7 97.2 197.1 100.2 194.1 97.8 191.7"/><polygon class="cls-2" points="103.1 186.4 100.1 189.4 102.5 191.8 105.5 188.9 103.1 186.4"/><polygon class="cls-2" points="108.3 181.1 105.4 184.1 107.8 186.5 110.8 183.6 108.3 181.1"/><polygon class="cls-2" points="113.6 175.8 110.7 178.8 113.1 181.3 116.1 178.3 113.6 175.8"/><polygon class="cls-2" points="118.9 170.5 116 173.5 118.4 176 121.4 173 118.9 170.5"/><polygon class="cls-2" points="124.2 165.2 121.2 168.2 123.7 170.7 126.7 167.7 124.2 165.2"/><polygon class="cls-2" points="130.7 150.6 127.8 153.6 131.8 157.6 126.5 162.9 129 165.4 137.3 157.1 130.7 150.6"/><polygon class="cls-2" points="101.8 195.8 98.8 198.8 101.3 201.2 104.3 198.2 101.8 195.8"/><polygon class="cls-2" points="123 174.6 104.1 193.5 106.6 195.9 125.5 177 123 174.6"/><polygon class="cls-2" points="128.3 169.3 125.3 172.3 127.8 174.7 130.7 171.7 128.3 169.3"/><polygon class="cls-2" points="133.6 164 130.6 167 133.1 169.4 136 166.5 133.6 164"/><polygon class="cls-2" points="138.4 164.1 141.3 161.2 138.9 158.7 135.9 161.7 138.4 164.1"/><path class="cls-2" d="M71.4,160.2a1.6,1.6,0,0,0,.5-1.1V142.8a1.5,1.5,0,0,0-1.5-1.5,1.5,1.5,0,0,0-1.5,1.5v16.3a1.4,1.4,0,0,0,1.5,1.5A1.3,1.3,0,0,0,71.4,160.2Z"/><path class="cls-2" d="M101,152.4a1.6,1.6,0,0,0,1.1-.5,1.8,1.8,0,0,0,.4-1V134.5a1.5,1.5,0,0,0-3,0v16.4A1.5,1.5,0,0,0,101,152.4Z"/><path class="cls-2" d="M85.7,164.6a1.5,1.5,0,0,0,1-.4,1.6,1.6,0,0,0,.5-1.1V126.9a1.5,1.5,0,0,0-1.5-1.5,1.5,1.5,0,0,0-1.5,1.5v36.2A1.5,1.5,0,0,0,85.7,164.6Z"/></g></g></pattern></defs><rect class="cls-3" width="3000" height="2000"/></svg>