<svg version="1.1" id="Capa_1" xmlns="http://www.w3.org/2000/svg" xmlns:xlink="http://www.w3.org/1999/xlink" x="0px" y="0px" viewBox="0 0 500 500" style="enable-background:new 0 0 500 500;" xml:space="preserve" width="100%" height="100%" preserveAspectRatio="none"><style type="text/css"> .st0{fill:#063978;} .st1{fill:none;stroke:#EC1C24;stroke-width:10;stroke-linecap:round;stroke-miterlimit:10;} </style><g><path class="st0" d="M356.8,273l-32,32l-32-32l76.8-76.8c8.4,2.4,17.1,3.5,25.6,3.5c24.7,0,48.9-9.6,67-27.7 c26.6-26.6,34.9-66.5,21.2-101.6l-7.8-20l-50.3,50.3L405,95.2l-5.4-20.3l50.3-50.3l-20-7.8C394.8,3,354.9,11.3,328.3,38 c-24.4,24.4-33.4,59.9-24.2,92.6l-76.8,76.8L124.1,104.3l27.4-27.4L66.7,10L10,66.7l66.9,84.8l27.4-27.4l103.2,103.2l-67.8,67.8 c-35.2-11-73.7-1.8-100.2,24.7c-18.8,18.8-29.2,43.9-29.2,70.5s10.4,51.7,29.2,70.5c19.4,19.4,45,29.1,70.5,29.1 s51.1-9.7,70.5-29.1c26.5-26.5,35.7-64.9,24.7-100.2l67.8-67.8l32,32l-32,32l115.8,115.8c11.2,11.2,26.1,17.4,41.9,17.4 s30.7-6.2,41.9-17.4c23.1-23.1,23.1-60.7,0-83.9L356.8,273z M47.5,68.9l21.3-21.3l40.4,31.8l-29.9,29.9L47.5,68.9z M336.7,137.8 l-3.4-8.6c-9.7-24.7-3.8-52.7,14.9-71.4c13-13,30.5-19.8,48.2-19.5l-28.1,28.1l13.8,51.7l51.7,13.8l28.1-28.1 c0.3,17.7-6.5,35.2-19.5,48.2c-18.7,18.7-46.8,24.6-71.4,14.9l-8.6-3.4L272.9,253l-25.7-25.7L336.7,137.8z M172.2,353.8l3.7,8.7 c11.4,27,5.3,57.8-15.3,78.4c-14,14-32.3,20.9-50.6,20.9s-36.7-7-50.6-20.9c-13.5-13.5-21-31.5-21-50.6s7.4-37.1,21-50.6 c13.7-13.7,31.9-21,50.5-21c9.4,0,18.9,1.9,27.9,5.7l8.7,3.7l80.8-80.8L253,273L172.2,353.8z M356.8,312.7l25.7,25.7l-44.1,44.1 l-25.7-25.7L356.8,312.7z M452.7,452.8c-5.9,5.9-13.7,9.1-22.1,9.1c-8.3,0-16.2-3.2-22.1-9.1l-50.3-50.3l44.1-44.1l50.3,50.3 C464.9,420.8,464.9,440.6,452.7,452.8L452.7,452.8z"/><path class="st0" d="M109.9,344c-12.4,0-24,4.8-32.8,13.6c-8.7,8.7-13.6,20.4-13.6,32.8s4.8,24,13.6,32.8 c8.7,8.7,20.4,13.6,32.8,13.6s24-4.8,32.8-13.6c18.1-18.1,18.1-47.4,0-65.5C133.9,348.8,122.3,344,109.9,344L109.9,344z M122.8,403.2c-3.4,3.4-8,5.3-12.9,5.3s-9.4-1.9-12.9-5.3c-3.4-3.4-5.3-8-5.3-12.9s1.9-9.4,5.3-12.9c3.4-3.4,8-5.3,12.9-5.3 s9.4,1.9,12.9,5.3C129.9,384.5,129.9,396.1,122.8,403.2z"/></g><line class="st1" x1="442" y1="253" x2="232.6" y2="462.4"/><line class="st1" x1="232.6" y1="253" x2="442" y2="462.4"/></svg>