<svg xmlns="http://www.w3.org/2000/svg" width="100%" height="100%" viewBox="0 0 43.3 39.6" preserveAspectRatio="none"><defs><style> .cls-1, .cls-2 { fill: none; stroke: #063978; stroke-width: 2px; } .cls-1 { stroke-linecap: round; stroke-linejoin: round; } .cls-2 { stroke-miterlimit: 10; } .cls-3 { fill: #063978; } </style></defs><g id="Capa_2"><g id="Capa_1-2"><g><g><path class="cls-1" d="M24.4,26.3l8.8.2.3-10.9V13.8a2.6,2.6,0,0,0-2.6-2.7H19.5a2.3,2.3,0,0,0-2.4,2.3l-.3,13h4.1"/><circle class="cls-2" cx="22.6" cy="26.6" r="1.8"/><path class="cls-1" d="M39.3,26.7H42a4.1,4.1,0,0,0,.2-2.3,11.9,11.9,0,0,0-1.6-4.8l-2.2-3.8-4.9-.2-.3,10.9h2.5"/><polygon class="cls-1" points="23 10.9 22.8 19.4 25.7 16.4 28.4 19.8 28.6 11 23 10.9"/><circle class="cls-2" cx="37.5" cy="27" r="1.8"/><circle class="cls-2" cx="37.5" cy="27" r="1.8"/></g><line class="cls-1" x1="12.7" y1="16.6" x2="5" y2="16.6"/><line class="cls-1" x1="12.7" y1="20.2" x2="1" y2="20.2"/><line class="cls-1" x1="12.7" y1="23" x2="7.8" y2="23"/><path class="cls-3" d="M22.5,39.6a.6.6,0,0,1-.6-.6.6.6,0,0,1,.6-.7l1.9-.2a.7.7,0,0,1,.7.6.5.5,0,0,1-.5.7l-2.1.2Zm-2-.1h0l-2-.2a.8.8,0,0,1-.6-.8.7.7,0,0,1,.8-.5l1.9.2a.9.9,0,0,1,.6.7C21.2,39.3,20.9,39.5,20.5,39.5Zm5.9-.4a.6.6,0,0,1-.6-.5.6.6,0,0,1,.5-.8l1.8-.5a.5.5,0,0,1,.8.4.6.6,0,0,1-.4.8l-1.9.6Zm-9.7-.2h-.2l-1.9-.6a.7.7,0,0,1-.4-.9.7.7,0,0,1,.8-.4l1.8.7a.6.6,0,0,1,.5.8A.6.6,0,0,1,16.7,38.9Zm13.4-1.1a.6.6,0,0,1-.6-.4.8.8,0,0,1,.3-.9,5.6,5.6,0,0,0,1.7-.9.8.8,0,0,1,.9.3.7.7,0,0,1-.2.9l-1.8.9ZM13,37.4h-.3L11,36.2a.7.7,0,0,1-.2-.9.6.6,0,0,1,.9-.1l1.6.9a.7.7,0,0,1,.3.9A.7.7,0,0,1,13,37.4Zm20.5-1.6a.5.5,0,0,1-.5-.3.6.6,0,0,1,.1-.9l1.5-1.2a.6.6,0,0,1,.9,0,.7.7,0,0,1,0,.9l-1.6,1.3ZM9.8,35.2,9.3,35,7.8,33.6a.7.7,0,0,1,0-.9.9.9,0,0,1,1,0A8.6,8.6,0,0,0,10.2,34a.6.6,0,0,1,.1.9Zm26.6-2.1-.5-.2a.6.6,0,0,1,0-.9l1.2-1.5a.6.6,0,0,1,1,.8l-1.2,1.6ZM7,32.4a.5.5,0,0,1-.5-.3L5.3,30.5a.8.8,0,0,1,.2-1,.8.8,0,0,1,.9.2,9.1,9.1,0,0,0,1.1,1.6.6.6,0,0,1-.1.9ZM4.9,29a.6.6,0,0,1-.6-.3,10.8,10.8,0,0,1-.8-1.9.5.5,0,0,1,.4-.8.5.5,0,0,1,.8.4l.8,1.7a.8.8,0,0,1-.3.9ZM4.1,13.7H3.8a.7.7,0,0,1-.4-.8L4.3,11a.6.6,0,0,1,.8-.3c.4.1.5.5.3.9s-.5,1.1-.7,1.7A.6.6,0,0,1,4.1,13.7Zm35.4-1a.6.6,0,0,1-.6-.4l-.8-1.7a.7.7,0,0,1,.2-.9.8.8,0,0,1,.9.3l.9,1.8a.7.7,0,0,1-.3.9ZM5.8,10.2H5.5a.7.7,0,0,1-.2-.9A16.3,16.3,0,0,1,6.4,7.5a.9.9,0,0,1,1-.1.9.9,0,0,1,.1,1L6.4,9.9Zm31.8-.9A.9.9,0,0,1,37,9a7.9,7.9,0,0,0-1.2-1.5.6.6,0,0,1,.1-.9.6.6,0,0,1,.9.1,10.1,10.1,0,0,1,1.3,1.6.7.7,0,0,1-.2.9ZM8.3,7.1c-.2,0-.4,0-.5-.2a.6.6,0,0,1,0-.9L9.3,4.6a.6.6,0,0,1,.9.1.6.6,0,0,1-.1.9L8.7,6.9A.4.4,0,0,1,8.3,7.1ZM35,6.4l-.5-.2L33,5a.8.8,0,0,1-.1-.9.7.7,0,0,1,.9-.2l1.6,1.3a.6.6,0,0,1,0,.9A.5.5,0,0,1,35,6.4ZM11.3,4.6a.9.9,0,0,1-.6-.3.7.7,0,0,1,.2-.9l1.7-1.1c.4-.1.8,0,.9.3a.7.7,0,0,1-.2.9l-1.7,1ZM31.8,4h-.3L29.8,3a.6.6,0,0,1-.3-.8.6.6,0,0,1,.8-.4,10.4,10.4,0,0,1,1.8,1,.7.7,0,0,1,.3.9A.9.9,0,0,1,31.8,4ZM14.7,2.7a.6.6,0,0,1-.6-.4.6.6,0,0,1,.4-.8L16.4.8a.6.6,0,0,1,.8.4.8.8,0,0,1-.4.9,6.4,6.4,0,0,0-1.8.6Zm13.5-.4H28l-1.8-.5a.6.6,0,0,1-.5-.8.6.6,0,0,1,.8-.5,13.9,13.9,0,0,1,1.9.6.7.7,0,0,1,.5.8A.7.7,0,0,1,28.2,2.3Zm-9.7-.7a.6.6,0,0,1-.6-.5.6.6,0,0,1,.5-.8l2-.2a.6.6,0,0,1,.7.6.7.7,0,0,1-.6.7l-1.9.2Zm5.9-.1h-.1l-1.9-.2a.7.7,0,0,1-.6-.7.6.6,0,0,1,.6-.6h2.1a.7.7,0,0,1,.5.8A.6.6,0,0,1,24.4,1.5Z"/></g></g></g></svg>