<svg xmlns="http://www.w3.org/2000/svg" width="100%" height="100%" viewBox="0 0 34 35" preserveAspectRatio="none"><defs><style> .cls-1 { fill: #063978; } </style></defs><g id="Capa_2"><g id="Capa_1-2"><g><g><path class="cls-1" d="M9,20.2h.3c.1,0,.1.1.1.2v.6H5.8v-.3c0-.1,0-.2.1-.2s0-.2.1-.2l1.5-1.5.3-.3.2-.3.2-.3v-.4c0-.2,0-.3-.1-.4L7.6,17H7.2l-.2.3c0,.2-.1.2-.2.3H5.9a1.4,1.4,0,0,1,.2-.6l.4-.5.6-.2H8.4a.5.5,0,0,1,.5.3c.1.1.3.2.3.4a1.3,1.3,0,0,1,.1.6v.5l-.3.4-.3.4-.4.4-1,1H9Z"/><path class="cls-1" d="M14.3,19.2V20h-.5v1.1h-.9V20H10.7a.1.1,0,0,1-.1-.1h-.1l-.2-.5,2.4-3.1h1v2.9Zm-1.5,0V17.4l-1.3,1.8Z"/><path class="cls-1" d="M16.3,21.1c0,.1-.1.1-.1.2h-.9l2-5c0-.1.1-.2.2-.3h.8Z"/><path class="cls-1" d="M23,19.3v.6h-.5v1.1h-.9V20.1H19.3c0-.1,0-.1-.1-.2v-.5l2.4-3h1v3Zm-1.4,0V17.5l-1.3,1.8Z"/><path class="cls-1" d="M26.9,18.7h.4c.1.1.2.2.2.3l.2.3v.4a1.3,1.3,0,0,1-.1.6l-.4.5-.6.3h-.7l-.7-.2a.7.7,0,0,1-.6-.3.8.8,0,0,1-.4-.4,1.3,1.3,0,0,1-.1-.6v-.4l.2-.3.3-.3.4-.2a1.3,1.3,0,0,1-.6-.4,1.3,1.3,0,0,1-.1-.6.7.7,0,0,1,.1-.5l.3-.5.6-.2h1.3a.5.5,0,0,1,.5.3.8.8,0,0,1,.4.4,4.3,4.3,0,0,1,.1.5.8.8,0,0,1-.2.6A1.2,1.2,0,0,1,26.9,18.7Zm-1,1.8h.5c.1-.1.1-.2.2-.2v-.6a.3.3,0,0,0-.1-.2l-.3-.2h-.6c-.1.1-.2.1-.2.2s-.1.1-.1.2a.4.4,0,0,0-.1.3c0,.1,0,.2.1.2a.4.4,0,0,0,.1.3h.5Zm0-3.5c-.1,0-.2,0-.2.1h-.2v.2c-.1.1-.1.1-.1.2a.4.4,0,0,0,.1.3v.2h1a.3.3,0,0,1,.1-.2v-.5c0-.1-.1-.1-.1-.2h-.5Z"/></g><path class="cls-1" d="M19.6,2.6,12,0l.8,2.6v.2A16.4,16.4,0,0,0,0,18.7a16.5,16.5,0,0,0,29.6,9.8l-2.4-1.7a13.5,13.5,0,0,1-10,5A13.3,13.3,0,0,1,3,19.5,13.1,13.1,0,0,1,13.7,6.1l1,3.2,2.6-3.5Z"/><rect class="cls-1" x="29" y="23.6" width="3.5" height="3.47" rx="1.7" transform="translate(19.3 -12.8) rotate(33.7)"/><rect class="cls-1" x="30.5" y="17.7" width="3.5" height="3.47" rx="1.7" transform="translate(-2.7 5.4) rotate(-9.2)"/><rect class="cls-1" x="29" y="11.7" width="3.5" height="3.47" rx="1.7" transform="translate(-2.7 10.5) rotate(-18.5)"/><rect class="cls-1" x="26" y="6.7" width="3.5" height="3.47" rx="1.7" transform="translate(1.1 19.9) rotate(-40.3)"/><rect class="cls-1" x="20.7" y="3.5" width="3.5" height="3.47" rx="1.7" transform="translate(8.5 23.5) rotate(-65.7)"/></g></g></g></svg>