<svg version="1.1" id="Icons" xmlns="http://www.w3.org/2000/svg" xmlns:xlink="http://www.w3.org/1999/xlink" x="0px" y="0px" viewBox="0 0 500 500" style="enable-background:new 0 0 500 500;" xml:space="preserve" width="100%" height="100%" preserveAspectRatio="none"><style type="text/css"> .st0{fill:#063978;} .st1{fill:none;stroke:#063978;stroke-width:6;stroke-miterlimit:10;} </style><g><path class="st0" d="M84.9,425.3c-21.7,0-39.4-17.6-39.4-39.4c0-21.7,17.6-39.4,39.4-39.4h365.7c21.7,0,39.3,17.6,39.3,39.3 c0,21.7-17.6,39.3-39.3,39.3L84.9,425.3L84.9,425.3z"/><path class="st0" d="M114,403.7h74.1v45.2H114V403.7z"/><path class="st0" d="M347.5,403.7h74.1v45.2h-74.1V403.7z"/><path class="st0" d="M119,354.7L72.6,88l55.3-2.5l46.4,266.7L119,354.7z"/><path class="st0" d="M152.1,98.5L37.2,97.8l0,0C22.1,97.7,9.9,85.4,10,70.3S22.4,43,37.5,43.1l114.9,0.7 c11.1,0.1,21.1,6.9,25.2,17.2c5.6,14-1.2,29.9-15.2,35.6C159.1,97.9,155.6,98.5,152.1,98.5z"/></g><path class="st1" d="M212,78c0,0,225.6-2,229.9,220.5"/><g><polygon class="st0" points="416.6,279.5 420.8,275.2 441.7,296.2 461.1,273.8 465.6,277.8 442,305 "/></g></svg>